<?xml version="1.0" encoding="utf-8"?>
<!-- Generator: Adobe Illustrator 23.1.0, SVG Export Plug-In . SVG Version: 6.00 Build 0)  -->
<svg version="1.1" id="Layer_1" xmlns="http://www.w3.org/2000/svg" xmlns:xlink="http://www.w3.org/1999/xlink" x="0px" y="0px"
	 viewBox="0 0 425.76 75.81" style="enable-background:new 0 0 425.76 75.81;" xml:space="preserve">
<style type="text/css">
	.st0{fill:#182C4F;}
	.st1{fill:#00DAFF;}
	.st2{fill:#5A59FF;}
	.st3{fill:#FFD700;}
	.st4{fill:#1ADB69;}
</style>
<g>
	<g>
		<path class="st0" d="M100.99,54.4c-3.29,0-5.94-0.89-7.95-2.68c-2-1.78-3.01-4.2-3.02-7.25c0-0.02,0.02-0.04,0.04-0.04h6.08
			c0.02,0,0.03,0.02,0.03,0.04c0.01,1.32,0.47,2.33,1.38,3.05c0.92,0.72,2.05,1.08,3.39,1.08c1.22,0,2.29-0.31,3.2-0.93
			c0.91-0.62,1.36-1.45,1.36-2.49c0-0.36-0.06-0.69-0.19-0.99c-0.13-0.3-0.34-0.56-0.63-0.79s-0.58-0.42-0.85-0.59
			s-0.67-0.32-1.19-0.49s-0.96-0.29-1.29-0.37s-0.84-0.21-1.51-0.37c-2.37-0.59-4.08-1.15-5.13-1.68c-2.5-1.23-3.91-3.12-4.22-5.66
			c-0.05-0.4-0.08-0.82-0.08-1.25c0-2.75,0.92-4.88,2.75-6.4s4.34-2.28,7.51-2.28c3.24,0,5.74,0.83,7.53,2.48
			c1.77,1.65,2.67,3.91,2.67,6.81c0,0.02-0.02,0.04-0.04,0.04h-5.99c-0.02,0-0.03-0.02-0.03-0.04c-0.01-1.17-0.42-2.06-1.23-2.69
			c-0.82-0.63-1.84-0.94-3.07-0.94c-1.09,0-2.03,0.24-2.81,0.71c-0.78,0.47-1.17,1.15-1.17,2.04c0,0.39,0.1,0.75,0.31,1.07
			c0.2,0.32,0.44,0.59,0.72,0.79s0.69,0.41,1.24,0.62s1.03,0.37,1.43,0.47c0.4,0.11,0.98,0.26,1.75,0.45
			c0.64,0.16,1.14,0.29,1.49,0.38c0.35,0.09,0.84,0.24,1.47,0.45c0.63,0.2,1.13,0.39,1.5,0.56c0.37,0.17,0.82,0.4,1.36,0.69
			s0.97,0.58,1.29,0.87c0.32,0.29,0.67,0.65,1.05,1.08c0.38,0.43,0.66,0.88,0.86,1.36s0.36,1.02,0.5,1.64
			c0.14,0.62,0.21,1.28,0.21,1.98c0,1.52-0.28,2.89-0.85,4.08c-0.57,1.2-1.34,2.17-2.32,2.92c-0.98,0.75-2.11,1.31-3.39,1.7
			C103.86,54.2,102.48,54.4,100.99,54.4z"/>
		<path class="st0" d="M134.03,31.42h4.36c0.02,0,0.04,0.02,0.04,0.04v22.3c0,0.02-0.02,0.04-0.04,0.04h-4.57
			c-0.02,0-0.03-0.01-0.03-0.03l-0.49-1.92c-0.01-0.03-0.04-0.03-0.06-0.02c-1.98,1.75-4.32,2.63-7.02,2.63
			c-2.16,0-4.11-0.51-5.86-1.54c-1.75-1.02-3.12-2.44-4.1-4.26c-0.99-1.81-1.48-3.83-1.48-6.06c0-2.21,0.49-4.22,1.48-6.02
			c0.99-1.8,2.35-3.21,4.1-4.23c1.75-1.02,3.7-1.53,5.86-1.53c2.76,0,5.13,0.9,7.12,2.69c0.02,0.02,0.05,0.01,0.06-0.02l0.61-2.07
			C134,31.43,134.01,31.42,134.03,31.42z M122.43,46.98c1.12,1.17,2.54,1.75,4.25,1.75s3.13-0.58,4.25-1.74
			c1.12-1.16,1.69-2.62,1.69-4.39s-0.56-3.23-1.69-4.39c-1.12-1.16-2.54-1.74-4.25-1.74s-3.13,0.58-4.25,1.75
			c-1.12,1.17-1.69,2.63-1.69,4.38S121.3,45.82,122.43,46.98z"/>
		<path class="st0" d="M157.44,31.8v4.9c0,0.02-0.02,0.04-0.04,0.04h-5.41c-0.02,0-0.04,0.02-0.04,0.04v17.02
			c0,0.02-0.02,0.04-0.04,0.04h-5.83c-0.02,0-0.04-0.02-0.04-0.04V36.78c0-0.02-0.02-0.04-0.04-0.04h-3.72
			c-0.02,0-0.04-0.02-0.04-0.04v-4.9c0-0.02,0.02-0.04,0.04-0.04h3.73c0.02,0,0.04-0.02,0.04-0.04v-1.99c0-2.18,0.59-3.9,1.78-5.15
			s2.9-1.87,5.15-1.87h4.36c0.02,0,0.04,0.02,0.04,0.04v4.68c0,0.02-0.02,0.04-0.04,0.04h-3.18c-1.59,0-2.39,0.8-2.39,2.41v1.84
			c0,0.02,0.02,0.04,0.04,0.04h5.57C157.42,31.76,157.44,31.78,157.44,31.8z"/>
		<path class="st0" d="M181.54,42.56c0,0.6-0.04,1.18-0.11,1.75c0,0.02-0.02,0.03-0.04,0.03h-16.44c-0.02,0-0.04,0.02-0.04,0.04
			c0.25,1.5,0.85,2.66,1.78,3.46c0.94,0.82,2.13,1.22,3.56,1.22c1.01,0,1.92-0.23,2.73-0.69c0.8-0.45,1.43-1.08,1.87-1.88
			c0.01-0.01,0.02-0.02,0.03-0.02h6.12c0.02,0,0.04,0.03,0.04,0.05c-0.79,2.42-2.15,4.34-4.09,5.76c-1.95,1.44-4.18,2.15-6.71,2.15
			c-2.12,0-4.04-0.52-5.77-1.55c-1.73-1.03-3.09-2.45-4.07-4.26c-0.99-1.81-1.48-3.81-1.48-6.01c0-2.21,0.49-4.22,1.47-6.03
			c0.98-1.81,2.33-3.22,4.06-4.25c1.73-1.02,3.66-1.54,5.79-1.54c2.18,0,4.14,0.53,5.88,1.59c1.74,1.06,3.07,2.48,4,4.26
			C181.08,38.46,181.54,40.42,181.54,42.56z M170.26,35.99c-1.3,0-2.41,0.37-3.31,1.11c-0.9,0.73-1.52,1.75-1.86,3.07
			c-0.01,0.02,0.01,0.05,0.04,0.05h10.48c0.02,0,0.04-0.03,0.04-0.05c-0.41-1.34-1.07-2.37-1.99-3.09
			C172.72,36.36,171.59,35.99,170.26,35.99z"/>
		<path class="st0" d="M196.09,48.45h2.65c0.02,0,0.04,0.02,0.04,0.04v5.31c0,0.02-0.02,0.04-0.04,0.04h-4.15
			c-2.39,0-4.28-0.71-5.67-2.13c-1.39-1.42-2.08-3.37-2.08-5.85v-9.49c0-0.02-0.02-0.04-0.04-0.04h-3.91v-1.28
			c0-0.01,0-0.02,0.01-0.02l8.6-9.38c0.01-0.01,0.02-0.01,0.03-0.01h1.11v5.81c0,0.02,0.02,0.04,0.04,0.04h5.95
			c0.02,0,0.04,0.02,0.04,0.04v4.78c0,0.02-0.02,0.04-0.04,0.04h-5.85c-0.02,0-0.04,0.02-0.04,0.04v8.68c0,1.09,0.29,1.93,0.87,2.53
			S195.01,48.45,196.09,48.45z"/>
		<path class="st0" d="M217.89,31.46h6.2c0.03,0,0.04,0.03,0.03,0.05l-9.49,22.01c-0.91,2.1-1.79,3.74-2.65,4.91
			c-0.86,1.17-1.86,2.04-3.01,2.61s-2.53,0.86-4.16,0.86h-2.39c-0.02,0-0.04-0.02-0.04-0.04v-5.37c0-0.02,0.02-0.04,0.04-0.04h2.02
			c1.39,0,2.39-0.26,2.99-0.79c0.6-0.53,1.24-1.65,1.92-3.38l0.08-0.18l-9.21-20.6c-0.01-0.02,0.01-0.05,0.03-0.05h6.33
			c0.01,0,0.03,0.01,0.03,0.02l5.78,13.65c0.01,0.03,0.05,0.03,0.07,0l5.4-13.65C217.86,31.47,217.87,31.46,217.89,31.46z"/>
		<path class="st0" d="M240.18,54.46c-2.04,0-3.96-0.39-5.77-1.16s-3.36-1.83-4.65-3.17s-2.31-2.94-3.06-4.8
			c-0.75-1.87-1.12-3.85-1.12-5.96c0-2.13,0.38-4.13,1.12-6.01c0.75-1.87,1.77-3.48,3.06-4.81c1.29-1.33,2.84-2.39,4.65-3.17
			c1.81-0.77,3.73-1.16,5.77-1.16c3.43,0,6.41,1.07,8.93,3.2c2.51,2.12,4.09,4.89,4.76,8.31c0,0.02-0.01,0.04-0.04,0.04h-6.07
			c-0.01,0-0.03-0.01-0.03-0.02c-0.59-1.71-1.55-3.06-2.88-4.05c-1.34-0.99-2.89-1.49-4.67-1.49c-2.39,0-4.39,0.87-6,2.62
			c-1.61,1.75-2.41,3.93-2.41,6.54c0,2.6,0.8,4.77,2.41,6.5c1.6,1.73,3.6,2.6,6,2.6c1.85,0,3.46-0.54,4.81-1.61
			c1.35-1.07,2.28-2.52,2.8-4.35c0-0.02,0.02-0.03,0.03-0.03h6.1c0.02,0,0.04,0.02,0.04,0.04c-0.65,3.57-2.23,6.44-4.75,8.63
			C246.69,53.36,243.68,54.46,240.18,54.46z"/>
		<path class="st0" d="M267.94,54.46c-3.08,0-5.56-0.92-7.45-2.77c-1.89-1.85-2.83-4.28-2.83-7.3V31.5c0-0.02,0.02-0.04,0.04-0.04
			h5.83c0.02,0,0.04,0.02,0.04,0.04v12.2c0,1.59,0.39,2.83,1.16,3.73c0.78,0.9,1.85,1.34,3.22,1.34c1.37,0,2.43-0.45,3.2-1.35
			c0.76-0.9,1.14-2.14,1.14-3.72V31.5c0-0.02,0.02-0.04,0.04-0.04h5.83c0.02,0,0.04,0.02,0.04,0.04v12.89c0,3.02-0.93,5.45-2.8,7.3
			C273.51,53.53,271.03,54.46,267.94,54.46z"/>
		<path class="st0" d="M283.54,53.79V23.43c0-0.02,0.02-0.04,0.04-0.04h5.83c0.02,0,0.04,0.02,0.04,0.04v30.37
			c0,0.02-0.02,0.04-0.04,0.04h-5.83C283.56,53.83,283.54,53.81,283.54,53.79z"/>
		<path class="st0" d="M305.74,48.45h2.65c0.02,0,0.04,0.02,0.04,0.04v5.31c0,0.02-0.02,0.04-0.04,0.04h-4.15
			c-2.39,0-4.29-0.71-5.67-2.13c-1.39-1.42-2.08-3.37-2.08-5.85v-9.49c0-0.02-0.02-0.04-0.04-0.04h-3.91v-1.28
			c0-0.01,0-0.02,0.01-0.02l8.6-9.38c0.01-0.01,0.02-0.01,0.03-0.01h1.11v5.81c0,0.02,0.02,0.04,0.04,0.04h5.94
			c0.02,0,0.04,0.02,0.04,0.04v4.78c0,0.02-0.02,0.04-0.04,0.04h-5.85c-0.02,0-0.04,0.02-0.04,0.04v8.68c0,1.09,0.29,1.93,0.87,2.53
			C303.83,48.15,304.66,48.45,305.74,48.45z"/>
		<path class="st0" d="M322.41,54.46c-3.08,0-5.56-0.92-7.45-2.77c-1.89-1.85-2.83-4.28-2.83-7.3V31.5c0-0.02,0.02-0.04,0.04-0.04
			h5.83c0.02,0,0.04,0.02,0.04,0.04v12.2c0,1.59,0.39,2.83,1.16,3.73c0.78,0.9,1.85,1.34,3.22,1.34c1.37,0,2.43-0.45,3.2-1.35
			c0.76-0.9,1.14-2.14,1.14-3.72V31.5c0-0.02,0.02-0.04,0.04-0.04h5.83c0.02,0,0.04,0.02,0.04,0.04v12.89c0,3.02-0.93,5.45-2.8,7.3
			C327.98,53.53,325.5,54.46,322.41,54.46z"/>
		<path class="st0" d="M349.16,31.34h1.9c0.02,0,0.04,0.02,0.04,0.04v5.63c0,0.02-0.02,0.04-0.04,0.04h-2.51
			c-1.66,0-2.85,0.4-3.56,1.2c-0.72,0.8-1.08,2.12-1.08,3.95v11.59c0,0.02-0.02,0.04-0.04,0.04h-5.83c-0.02,0-0.04-0.02-0.04-0.04
			V31.5c0-0.02,0.02-0.04,0.04-0.04h3.71c0.01,0,0.03,0.01,0.03,0.02l1.01,2.67c0.01,0.03,0.04,0.03,0.06,0.01
			C344.36,32.28,346.46,31.34,349.16,31.34z"/>
		<path class="st0" d="M375.12,42.56c0,0.6-0.04,1.18-0.11,1.75c0,0.02-0.02,0.03-0.04,0.03h-16.44c-0.02,0-0.04,0.02-0.04,0.04
			c0.25,1.5,0.85,2.66,1.78,3.46c0.94,0.82,2.13,1.22,3.56,1.22c1.01,0,1.92-0.23,2.73-0.69c0.8-0.45,1.43-1.08,1.87-1.88
			c0.01-0.01,0.02-0.02,0.03-0.02h6.12c0.02,0,0.04,0.03,0.04,0.05c-0.79,2.42-2.15,4.34-4.09,5.76c-1.95,1.44-4.18,2.15-6.71,2.15
			c-2.12,0-4.04-0.52-5.77-1.55c-1.73-1.03-3.09-2.45-4.07-4.26c-0.99-1.81-1.48-3.81-1.48-6.01c0-2.21,0.49-4.22,1.47-6.03
			c0.98-1.81,2.34-3.22,4.06-4.25c1.73-1.02,3.66-1.54,5.79-1.54c2.18,0,4.14,0.53,5.88,1.59c1.74,1.06,3.07,2.48,4.01,4.26
			C374.66,38.46,375.12,40.42,375.12,42.56z M363.84,35.99c-1.3,0-2.41,0.37-3.31,1.11c-0.9,0.73-1.52,1.75-1.86,3.07
			c-0.01,0.02,0.01,0.05,0.04,0.05h10.48c0.02,0,0.04-0.03,0.04-0.05c-0.41-1.34-1.07-2.37-1.99-3.09
			C366.29,36.36,365.17,35.99,363.84,35.99z"/>
	</g>
</g>
<path class="st1" d="M48.59,63.35L48.59,63.35L48.59,63.35c1.38,1.38,3.56,1.45,5.03,0.22l0,0l0.02-0.02
	c0.08-0.07,0.15-0.13,0.22-0.2c0.07-0.07,0.14-0.15,0.2-0.22L75.99,41.2c0.08-0.07,0.15-0.13,0.22-0.2c1.46-1.46,1.46-3.82,0-5.27
	c-1.39-1.39-3.62-1.45-5.08-0.17l-0.01-0.01L48.35,58.31l-2.38,2.38c-0.01,0.01-0.01,0.04,0,0.05L48.59,63.35z"/>
<path class="st2" d="M38.13,52.89l7.8,7.8c0.01,0.01,0.04,0.01,0.05,0l5.22-5.22c0.01-0.01,0.01-0.04,0-0.05l-7.97-7.97
	c-1.49-1.49-3.94-1.45-5.39,0.12C36.46,49.07,36.69,51.45,38.13,52.89z"/>
<path class="st3" d="M54.85,14.36L54.85,14.36L54.85,14.36c-1.38-1.38-3.56-1.45-5.03-0.22l0,0l-0.02,0.02
	c-0.08,0.07-0.15,0.13-0.22,0.2c-0.07,0.07-0.14,0.15-0.2,0.22L27.45,36.51c-0.08,0.07-0.15,0.13-0.22,0.2
	c-1.46,1.46-1.46,3.82,0,5.27c1.39,1.39,3.62,1.45,5.08,0.17l0.01,0.01L55.08,19.4l2.38-2.38c0.01-0.01,0.01-0.04,0-0.05
	L54.85,14.36z"/>
<path class="st4" d="M65.31,24.82l-7.8-7.8c-0.01-0.01-0.04-0.01-0.05,0l-5.22,5.22c-0.01,0.01-0.01,0.04,0,0.05l7.97,7.97
	c1.49,1.49,3.94,1.45,5.39-0.12C66.97,28.64,66.75,26.26,65.31,24.82z"/>
</svg>
